{
	"patcher" : 	{
		"fileversion" : 1,
		"appversion" : 		{
			"major" : 8,
			"minor" : 1,
			"revision" : 11,
			"architecture" : "x64",
			"modernui" : 1
		}
,
		"classnamespace" : "box",
		"openrect" : [ 79.0, 144.0, 962.0, 511.0 ],
		"bglocked" : 0,
		"openinpresentation" : 1,
		"default_fontsize" : 12.0,
		"default_fontface" : 0,
		"default_fontname" : "Arial",
		"gridonopen" : 1,
		"gridsize" : [ 15.0, 15.0 ],
		"gridsnaponopen" : 1,
		"objectsnaponopen" : 1,
		"statusbarvisible" : 2,
		"toolbarvisible" : 0,
		"lefttoolbarpinned" : 0,
		"toptoolbarpinned" : 0,
		"righttoolbarpinned" : 0,
		"bottomtoolbarpinned" : 0,
		"toolbars_unpinned_last_save" : 0,
		"tallnewobj" : 0,
		"boxanimatetime" : 200,
		"enablehscroll" : 1,
		"enablevscroll" : 1,
		"devicewidth" : 962.0,
		"description" : "",
		"digest" : "",
		"tags" : "",
		"style" : "",
		"subpatcher_template" : "",
		"assistshowspatchername" : 0,
		"boxes" : [ 			{
				"box" : 				{
					"id" : "obj-1",
					"maxclass" : "newobj",
					"numinlets" : 1,
					"numoutlets" : 2,
					"outlettype" : [ "int", "clear" ],
					"patching_rect" : [ 120.0, 284.0, 47.0, 22.0 ],
					"text" : "t i clear"
				}

			}
, 			{
				"box" : 				{
					"bgcolor" : [ 0.105882352941176, 0.031372549019608, 0.031372549019608, 1.0 ],
					"fontsize" : 18.0,
					"id" : "obj-159",
					"maxclass" : "comment",
					"numinlets" : 1,
					"numoutlets" : 0,
					"patching_rect" : [ 140.0, 144.0, 29.0, 27.0 ],
					"presentation" : 1,
					"presentation_rect" : [ 636.000009775161743, 166.666666626930237, 34.0, 27.0 ],
					"text" : "All",
					"textcolor" : [ 0.996078431372549, 0.996078431372549, 0.996078431372549, 1.0 ]
				}

			}
, 			{
				"box" : 				{
					"bgcolor" : [ 0.105882352941176, 0.031372549019608, 0.031372549019608, 1.0 ],
					"fontsize" : 18.0,
					"id" : "obj-156",
					"maxclass" : "comment",
					"numinlets" : 1,
					"numoutlets" : 0,
					"patching_rect" : [ 1281.0, 575.0, 54.0, 27.0 ],
					"presentation" : 1,
					"presentation_rect" : [ 538.000009775161743, 22.666666626930237, 54.0, 27.0 ],
					"text" : "23,24",
					"textcolor" : [ 0.976470588235294, 0.949019607843137, 0.949019607843137, 1.0 ]
				}

			}
, 			{
				"box" : 				{
					"bgcolor" : [ 0.105882352941176, 0.031372549019608, 0.031372549019608, 1.0 ],
					"fontsize" : 18.0,
					"id" : "obj-155",
					"maxclass" : "comment",
					"numinlets" : 1,
					"numoutlets" : 0,
					"patching_rect" : [ 1126.0, 575.0, 54.0, 27.0 ],
					"presentation" : 1,
					"presentation_rect" : [ 448.000009775161743, 63.666666626930237, 54.0, 27.0 ],
					"text" : "21,22",
					"textcolor" : [ 0.976470588235294, 0.949019607843137, 0.949019607843137, 1.0 ]
				}

			}
, 			{
				"box" : 				{
					"bgcolor" : [ 0.105882352941176, 0.031372549019608, 0.031372549019608, 1.0 ],
					"fontsize" : 18.0,
					"id" : "obj-154",
					"maxclass" : "comment",
					"numinlets" : 1,
					"numoutlets" : 0,
					"patching_rect" : [ 971.0, 575.0, 54.0, 27.0 ],
					"presentation" : 1,
					"presentation_rect" : [ 356.000009775161743, 166.666666626930237, 54.0, 27.0 ],
					"text" : "19,20",
					"textcolor" : [ 0.976470588235294, 0.949019607843137, 0.949019607843137, 1.0 ]
				}

			}
, 			{
				"box" : 				{
					"bgcolor" : [ 0.105882352941176, 0.031372549019608, 0.031372549019608, 1.0 ],
					"fontsize" : 18.0,
					"id" : "obj-153",
					"maxclass" : "comment",
					"numinlets" : 1,
					"numoutlets" : 0,
					"patching_rect" : [ 816.0, 575.0, 54.0, 27.0 ],
					"presentation" : 1,
					"presentation_rect" : [ 441.000009775161743, 274.666666626930237, 54.0, 27.0 ],
					"text" : "17,18",
					"textcolor" : [ 0.976470588235294, 0.949019607843137, 0.949019607843137, 1.0 ]
				}

			}
, 			{
				"box" : 				{
					"bgcolor" : [ 0.105882352941176, 0.031372549019608, 0.031372549019608, 1.0 ],
					"fontsize" : 18.0,
					"id" : "obj-152",
					"maxclass" : "comment",
					"numinlets" : 1,
					"numoutlets" : 0,
					"patching_rect" : [ 661.0, 575.0, 54.0, 27.0 ],
					"presentation" : 1,
					"presentation_rect" : [ 531.000009775161743, 309.666666626930237, 54.0, 27.0 ],
					"text" : "15,16",
					"textcolor" : [ 0.976470588235294, 0.949019607843137, 0.949019607843137, 1.0 ]
				}

			}
, 			{
				"box" : 				{
					"bgcolor" : [ 0.105882352941176, 0.031372549019608, 0.031372549019608, 1.0 ],
					"fontsize" : 18.0,
					"id" : "obj-151",
					"maxclass" : "comment",
					"numinlets" : 1,
					"numoutlets" : 0,
					"patching_rect" : [ 506.0, 575.0, 54.0, 27.0 ],
					"presentation" : 1,
					"presentation_rect" : [ 625.000009775161743, 331.666666626930237, 54.0, 27.0 ],
					"text" : "13,14",
					"textcolor" : [ 0.976470588235294, 0.949019607843137, 0.949019607843137, 1.0 ]
				}

			}
, 			{
				"box" : 				{
					"bgcolor" : [ 0.105882352941176, 0.031372549019608, 0.031372549019608, 1.0 ],
					"fontsize" : 18.0,
					"id" : "obj-150",
					"maxclass" : "comment",
					"numinlets" : 1,
					"numoutlets" : 0,
					"patching_rect" : [ 1281.0, 367.0, 54.0, 27.0 ],
					"presentation" : 1,
					"presentation_rect" : [ 723.000009775161743, 309.666666626930237, 54.0, 27.0 ],
					"text" : "11,12",
					"textcolor" : [ 0.996078431372549, 0.996078431372549, 0.996078431372549, 1.0 ]
				}

			}
, 			{
				"box" : 				{
					"bgcolor" : [ 0.105882352941176, 0.031372549019608, 0.031372549019608, 1.0 ],
					"fontsize" : 18.0,
					"id" : "obj-149",
					"maxclass" : "comment",
					"numinlets" : 1,
					"numoutlets" : 0,
					"patching_rect" : [ 1131.0, 367.0, 44.0, 27.0 ],
					"presentation" : 1,
					"presentation_rect" : [ 814.000009775161743, 267.666666626930237, 44.0, 27.0 ],
					"text" : "9,10",
					"textcolor" : [ 0.996078431372549, 0.996078431372549, 0.996078431372549, 1.0 ]
				}

			}
, 			{
				"box" : 				{
					"bgcolor" : [ 0.105882352941176, 0.031372549019608, 0.031372549019608, 1.0 ],
					"fontsize" : 18.0,
					"id" : "obj-148",
					"maxclass" : "comment",
					"numinlets" : 1,
					"numoutlets" : 0,
					"patching_rect" : [ 981.0, 367.0, 34.0, 27.0 ],
					"presentation" : 1,
					"presentation_rect" : [ 906.000009775161743, 166.666666626930237, 34.0, 27.0 ],
					"text" : "7,8",
					"textcolor" : [ 0.996078431372549, 0.996078431372549, 0.996078431372549, 1.0 ]
				}

			}
, 			{
				"box" : 				{
					"bgcolor" : [ 0.105882352941176, 0.031372549019608, 0.031372549019608, 1.0 ],
					"fontsize" : 18.0,
					"id" : "obj-147",
					"maxclass" : "comment",
					"numinlets" : 1,
					"numoutlets" : 0,
					"patching_rect" : [ 826.0, 367.0, 34.0, 27.0 ],
					"presentation" : 1,
					"presentation_rect" : [ 814.000009775161743, 95.166666626930237, 34.0, 27.0 ],
					"text" : "5,6",
					"textcolor" : [ 0.996078431372549, 0.996078431372549, 0.996078431372549, 1.0 ]
				}

			}
, 			{
				"box" : 				{
					"bgcolor" : [ 0.105882352941176, 0.031372549019608, 0.031372549019608, 1.0 ],
					"fontsize" : 18.0,
					"id" : "obj-146",
					"maxclass" : "comment",
					"numinlets" : 1,
					"numoutlets" : 0,
					"patching_rect" : [ 671.0, 367.0, 34.0, 27.0 ],
					"presentation" : 1,
					"presentation_rect" : [ 733.000009775161743, 33.666666626930237, 34.0, 27.0 ],
					"text" : "3,4",
					"textcolor" : [ 0.996078431372549, 0.996078431372549, 0.996078431372549, 1.0 ]
				}

			}
, 			{
				"box" : 				{
					"bgcolor" : [ 0.105882352941176, 0.031372549019608, 0.031372549019608, 1.0 ],
					"fontsize" : 18.0,
					"id" : "obj-145",
					"maxclass" : "comment",
					"numinlets" : 1,
					"numoutlets" : 0,
					"patching_rect" : [ 516.0, 367.0, 34.0, 27.0 ],
					"presentation" : 1,
					"presentation_rect" : [ 636.000009775161743, 13.666666626930237, 34.0, 27.0 ],
					"text" : "1,2",
					"textcolor" : [ 0.996078431372549, 0.996078431372549, 0.996078431372549, 1.0 ]
				}

			}
, 			{
				"box" : 				{
					"id" : "obj-143",
					"linecount" : 3,
					"maxclass" : "comment",
					"numinlets" : 1,
					"numoutlets" : 0,
					"patching_rect" : [ 500.0, 43.5, 150.0, 48.0 ],
					"text" : "mysterious anomaly modes from esalen sept 2018"
				}

			}
, 			{
				"box" : 				{
					"id" : "obj-141",
					"maxclass" : "newobj",
					"numinlets" : 2,
					"numoutlets" : 1,
					"outlettype" : [ "int" ],
					"patching_rect" : [ 120.0, 111.0, 29.5, 22.0 ],
					"text" : "+ 1"
				}

			}
, 			{
				"box" : 				{
					"id" : "obj-139",
					"maxclass" : "newobj",
					"numinlets" : 0,
					"numoutlets" : 1,
					"outlettype" : [ "" ],
					"patching_rect" : [ 140.0, 68.5, 153.0, 22.0 ],
					"text" : "receive setPairmodeMatrix"
				}

			}
, 			{
				"box" : 				{
					"id" : "obj-140",
					"maxclass" : "newobj",
					"numinlets" : 1,
					"numoutlets" : 1,
					"outlettype" : [ "" ],
					"patching_rect" : [ 120.0, 35.5, 72.0, 22.0 ],
					"text" : "loadmess 0"
				}

			}
, 			{
				"box" : 				{
					"bgcolor" : [ 0.105882352941176, 0.031372549019608, 0.031372549019608, 1.0 ],
					"fontsize" : 14.0,
					"id" : "obj-121",
					"linecount" : 6,
					"maxclass" : "comment",
					"numinlets" : 1,
					"numoutlets" : 0,
					"patching_rect" : [ 1244.0, 618.0, 49.0, 103.0 ],
					"presentation" : 1,
					"presentation_linecount" : 6,
					"presentation_rect" : [ 527.000009775161743, 63.666666626930237, 49.0, 103.0 ],
					"text" : "Mute\nInd\nSwapSum\nBothA\nBothB",
					"textcolor" : [ 0.996078431372549, 0.996078431372549, 0.996078431372549, 1.0 ]
				}

			}
, 			{
				"box" : 				{
					"bgcolor" : [ 0.105882352941176, 0.031372549019608, 0.031372549019608, 1.0 ],
					"disabled" : [ 0, 0, 0, 0, 0, 0 ],
					"id" : "obj-122",
					"itemtype" : 0,
					"maxclass" : "radiogroup",
					"numinlets" : 1,
					"numoutlets" : 1,
					"outlettype" : [ "" ],
					"parameter_enable" : 0,
					"patching_rect" : [ 1299.0, 618.0, 18.0, 98.0 ],
					"presentation" : 1,
					"presentation_rect" : [ 582.000009775161743, 63.666666626930237, 18.0, 98.0 ],
					"size" : 6,
					"value" : 1
				}

			}
, 			{
				"box" : 				{
					"id" : "obj-123",
					"maxclass" : "newobj",
					"numinlets" : 2,
					"numoutlets" : 1,
					"outlettype" : [ "" ],
					"patching_rect" : [ 1299.0, 730.0, 96.0, 22.0 ],
					"text" : "pasPairMode 12"
				}

			}
, 			{
				"box" : 				{
					"bgcolor" : [ 0.105882352941176, 0.031372549019608, 0.031372549019608, 1.0 ],
					"fontsize" : 14.0,
					"id" : "obj-124",
					"linecount" : 6,
					"maxclass" : "comment",
					"numinlets" : 1,
					"numoutlets" : 0,
					"patching_rect" : [ 1089.0, 618.0, 49.0, 103.0 ],
					"presentation" : 1,
					"presentation_linecount" : 6,
					"presentation_rect" : [ 434.000009775161743, 104.666666626930237, 49.0, 103.0 ],
					"text" : "Mute\nInd\nSwapSum\nBothA\nBothB",
					"textcolor" : [ 0.996078431372549, 0.996078431372549, 0.996078431372549, 1.0 ]
				}

			}
, 			{
				"box" : 				{
					"bgcolor" : [ 0.105882352941176, 0.031372549019608, 0.031372549019608, 1.0 ],
					"disabled" : [ 0, 0, 0, 0, 0, 0 ],
					"id" : "obj-125",
					"itemtype" : 0,
					"maxclass" : "radiogroup",
					"numinlets" : 1,
					"numoutlets" : 1,
					"outlettype" : [ "" ],
					"parameter_enable" : 0,
					"patching_rect" : [ 1144.0, 618.0, 18.0, 98.0 ],
					"presentation" : 1,
					"presentation_rect" : [ 489.000009775161743, 104.666666626930237, 18.0, 98.0 ],
					"size" : 6,
					"value" : 1
				}

			}
, 			{
				"box" : 				{
					"id" : "obj-126",
					"maxclass" : "newobj",
					"numinlets" : 2,
					"numoutlets" : 1,
					"outlettype" : [ "" ],
					"patching_rect" : [ 1144.0, 730.0, 96.0, 22.0 ],
					"text" : "pasPairMode 11"
				}

			}
, 			{
				"box" : 				{
					"bgcolor" : [ 0.105882352941176, 0.031372549019608, 0.031372549019608, 1.0 ],
					"fontsize" : 14.0,
					"id" : "obj-127",
					"linecount" : 6,
					"maxclass" : "comment",
					"numinlets" : 1,
					"numoutlets" : 0,
					"patching_rect" : [ 934.0, 618.0, 49.0, 103.0 ],
					"presentation" : 1,
					"presentation_linecount" : 6,
					"presentation_rect" : [ 341.000009775161743, 201.666666626930237, 49.0, 103.0 ],
					"text" : "Mute\nInd\nSwapSum\nBothA\nBothB",
					"textcolor" : [ 0.996078431372549, 0.996078431372549, 0.996078431372549, 1.0 ]
				}

			}
, 			{
				"box" : 				{
					"bgcolor" : [ 0.105882352941176, 0.031372549019608, 0.031372549019608, 1.0 ],
					"disabled" : [ 0, 0, 0, 0, 0, 0 ],
					"id" : "obj-128",
					"itemtype" : 0,
					"maxclass" : "radiogroup",
					"numinlets" : 1,
					"numoutlets" : 1,
					"outlettype" : [ "" ],
					"parameter_enable" : 0,
					"patching_rect" : [ 989.0, 618.0, 18.0, 98.0 ],
					"presentation" : 1,
					"presentation_rect" : [ 396.000009775161743, 201.666666626930237, 18.0, 98.0 ],
					"size" : 6,
					"value" : 1
				}

			}
, 			{
				"box" : 				{
					"id" : "obj-129",
					"maxclass" : "newobj",
					"numinlets" : 2,
					"numoutlets" : 1,
					"outlettype" : [ "" ],
					"patching_rect" : [ 989.0, 730.0, 96.0, 22.0 ],
					"text" : "pasPairMode 10"
				}

			}
, 			{
				"box" : 				{
					"bgcolor" : [ 0.105882352941176, 0.031372549019608, 0.031372549019608, 1.0 ],
					"fontsize" : 14.0,
					"id" : "obj-130",
					"linecount" : 6,
					"maxclass" : "comment",
					"numinlets" : 1,
					"numoutlets" : 0,
					"patching_rect" : [ 779.0, 618.0, 49.0, 103.0 ],
					"presentation" : 1,
					"presentation_linecount" : 6,
					"presentation_rect" : [ 429.000009775161743, 313.666666626930237, 49.0, 103.0 ],
					"text" : "Mute\nInd\nSwapSum\nBothA\nBothB",
					"textcolor" : [ 0.996078431372549, 0.996078431372549, 0.996078431372549, 1.0 ]
				}

			}
, 			{
				"box" : 				{
					"bgcolor" : [ 0.105882352941176, 0.031372549019608, 0.031372549019608, 1.0 ],
					"disabled" : [ 0, 0, 0, 0, 0, 0 ],
					"id" : "obj-131",
					"itemtype" : 0,
					"maxclass" : "radiogroup",
					"numinlets" : 1,
					"numoutlets" : 1,
					"outlettype" : [ "" ],
					"parameter_enable" : 0,
					"patching_rect" : [ 834.0, 618.0, 18.0, 98.0 ],
					"presentation" : 1,
					"presentation_rect" : [ 484.000009775161743, 313.666666626930237, 18.0, 98.0 ],
					"size" : 6,
					"value" : 1
				}

			}
, 			{
				"box" : 				{
					"id" : "obj-132",
					"maxclass" : "newobj",
					"numinlets" : 2,
					"numoutlets" : 1,
					"outlettype" : [ "" ],
					"patching_rect" : [ 834.0, 730.0, 89.0, 22.0 ],
					"text" : "pasPairMode 9"
				}

			}
, 			{
				"box" : 				{
					"bgcolor" : [ 0.105882352941176, 0.031372549019608, 0.031372549019608, 1.0 ],
					"fontsize" : 14.0,
					"id" : "obj-133",
					"linecount" : 6,
					"maxclass" : "comment",
					"numinlets" : 1,
					"numoutlets" : 0,
					"patching_rect" : [ 624.0, 618.0, 49.0, 103.0 ],
					"presentation" : 1,
					"presentation_linecount" : 6,
					"presentation_rect" : [ 517.000009775161743, 342.666666626930237, 49.0, 103.0 ],
					"text" : "Mute\nInd\nSwapSum\nBothA\nBothB",
					"textcolor" : [ 0.996078431372549, 0.996078431372549, 0.996078431372549, 1.0 ]
				}

			}
, 			{
				"box" : 				{
					"bgcolor" : [ 0.105882352941176, 0.031372549019608, 0.031372549019608, 1.0 ],
					"disabled" : [ 0, 0, 0, 0, 0, 0 ],
					"id" : "obj-134",
					"itemtype" : 0,
					"maxclass" : "radiogroup",
					"numinlets" : 1,
					"numoutlets" : 1,
					"outlettype" : [ "" ],
					"parameter_enable" : 0,
					"patching_rect" : [ 679.0, 618.0, 18.0, 98.0 ],
					"presentation" : 1,
					"presentation_rect" : [ 572.000009775161743, 342.666666626930237, 18.0, 98.0 ],
					"size" : 6,
					"value" : 1
				}

			}
, 			{
				"box" : 				{
					"id" : "obj-135",
					"maxclass" : "newobj",
					"numinlets" : 2,
					"numoutlets" : 1,
					"outlettype" : [ "" ],
					"patching_rect" : [ 679.0, 730.0, 89.0, 22.0 ],
					"text" : "pasPairMode 8"
				}

			}
, 			{
				"box" : 				{
					"bgcolor" : [ 0.105882352941176, 0.031372549019608, 0.031372549019608, 1.0 ],
					"fontsize" : 14.0,
					"id" : "obj-136",
					"linecount" : 6,
					"maxclass" : "comment",
					"numinlets" : 1,
					"numoutlets" : 0,
					"patching_rect" : [ 469.0, 618.0, 49.0, 103.0 ],
					"presentation" : 1,
					"presentation_linecount" : 6,
					"presentation_rect" : [ 611.000009775161743, 365.666666626930237, 49.0, 103.0 ],
					"text" : "Mute\nInd\nSwapSum\nBothA\nBothB",
					"textcolor" : [ 0.996078431372549, 0.996078431372549, 0.996078431372549, 1.0 ]
				}

			}
, 			{
				"box" : 				{
					"bgcolor" : [ 0.105882352941176, 0.031372549019608, 0.031372549019608, 1.0 ],
					"disabled" : [ 0, 0, 0, 0, 0, 0 ],
					"id" : "obj-137",
					"itemtype" : 0,
					"maxclass" : "radiogroup",
					"numinlets" : 1,
					"numoutlets" : 1,
					"outlettype" : [ "" ],
					"parameter_enable" : 0,
					"patching_rect" : [ 524.0, 618.0, 18.0, 98.0 ],
					"presentation" : 1,
					"presentation_rect" : [ 666.000009775161743, 365.666666626930237, 18.0, 98.0 ],
					"size" : 6,
					"value" : 1
				}

			}
, 			{
				"box" : 				{
					"id" : "obj-138",
					"maxclass" : "newobj",
					"numinlets" : 2,
					"numoutlets" : 1,
					"outlettype" : [ "" ],
					"patching_rect" : [ 524.0, 730.0, 89.0, 22.0 ],
					"text" : "pasPairMode 7"
				}

			}
, 			{
				"box" : 				{
					"bgcolor" : [ 0.105882352941176, 0.031372549019608, 0.031372549019608, 1.0 ],
					"fontsize" : 14.0,
					"id" : "obj-118",
					"linecount" : 6,
					"maxclass" : "comment",
					"numinlets" : 1,
					"numoutlets" : 0,
					"patching_rect" : [ 1244.0, 419.0, 49.0, 103.0 ],
					"presentation" : 1,
					"presentation_linecount" : 6,
					"presentation_rect" : [ 707.000009775161743, 343.666666626930237, 49.0, 103.0 ],
					"text" : "Mute\nInd\nSwapSum\nBothA\nBothB",
					"textcolor" : [ 0.996078431372549, 0.996078431372549, 0.996078431372549, 1.0 ]
				}

			}
, 			{
				"box" : 				{
					"bgcolor" : [ 0.105882352941176, 0.031372549019608, 0.031372549019608, 1.0 ],
					"disabled" : [ 0, 0, 0, 0, 0, 0 ],
					"id" : "obj-119",
					"itemtype" : 0,
					"maxclass" : "radiogroup",
					"numinlets" : 1,
					"numoutlets" : 1,
					"outlettype" : [ "" ],
					"parameter_enable" : 0,
					"patching_rect" : [ 1299.0, 419.0, 18.0, 98.0 ],
					"presentation" : 1,
					"presentation_rect" : [ 762.000009775161743, 343.666666626930237, 18.0, 98.0 ],
					"size" : 6,
					"value" : 1
				}

			}
, 			{
				"box" : 				{
					"id" : "obj-120",
					"maxclass" : "newobj",
					"numinlets" : 2,
					"numoutlets" : 1,
					"outlettype" : [ "" ],
					"patching_rect" : [ 1299.0, 531.0, 89.0, 22.0 ],
					"text" : "pasPairMode 6"
				}

			}
, 			{
				"box" : 				{
					"bgcolor" : [ 0.105882352941176, 0.031372549019608, 0.031372549019608, 1.0 ],
					"fontsize" : 14.0,
					"id" : "obj-115",
					"linecount" : 6,
					"maxclass" : "comment",
					"numinlets" : 1,
					"numoutlets" : 0,
					"patching_rect" : [ 1089.0, 419.0, 49.0, 103.0 ],
					"presentation" : 1,
					"presentation_linecount" : 6,
					"presentation_rect" : [ 795.000009775161743, 300.166666626930237, 49.0, 103.0 ],
					"text" : "Mute\nInd\nSwapSum\nBothA\nBothB",
					"textcolor" : [ 0.996078431372549, 0.996078431372549, 0.996078431372549, 1.0 ]
				}

			}
, 			{
				"box" : 				{
					"bgcolor" : [ 0.105882352941176, 0.031372549019608, 0.031372549019608, 1.0 ],
					"disabled" : [ 0, 0, 0, 0, 0, 0 ],
					"id" : "obj-116",
					"itemtype" : 0,
					"maxclass" : "radiogroup",
					"numinlets" : 1,
					"numoutlets" : 1,
					"outlettype" : [ "" ],
					"parameter_enable" : 0,
					"patching_rect" : [ 1144.0, 419.0, 18.0, 98.0 ],
					"presentation" : 1,
					"presentation_rect" : [ 850.000009775161743, 300.166666626930237, 18.0, 98.0 ],
					"size" : 6,
					"value" : 1
				}

			}
, 			{
				"box" : 				{
					"id" : "obj-117",
					"maxclass" : "newobj",
					"numinlets" : 2,
					"numoutlets" : 1,
					"outlettype" : [ "" ],
					"patching_rect" : [ 1144.0, 531.0, 89.0, 22.0 ],
					"text" : "pasPairMode 5"
				}

			}
, 			{
				"box" : 				{
					"bgcolor" : [ 0.105882352941176, 0.031372549019608, 0.031372549019608, 1.0 ],
					"fontsize" : 14.0,
					"id" : "obj-112",
					"linecount" : 6,
					"maxclass" : "comment",
					"numinlets" : 1,
					"numoutlets" : 0,
					"patching_rect" : [ 934.0, 419.0, 49.0, 103.0 ],
					"presentation" : 1,
					"presentation_linecount" : 6,
					"presentation_rect" : [ 881.000009775161743, 201.666666626930237, 49.0, 103.0 ],
					"text" : "Mute\nInd\nSwapSum\nBothA\nBothB",
					"textcolor" : [ 0.996078431372549, 0.996078431372549, 0.996078431372549, 1.0 ]
				}

			}
, 			{
				"box" : 				{
					"bgcolor" : [ 0.105882352941176, 0.031372549019608, 0.031372549019608, 1.0 ],
					"disabled" : [ 0, 0, 0, 0, 0, 0 ],
					"id" : "obj-113",
					"itemtype" : 0,
					"maxclass" : "radiogroup",
					"numinlets" : 1,
					"numoutlets" : 1,
					"outlettype" : [ "" ],
					"parameter_enable" : 0,
					"patching_rect" : [ 989.0, 419.0, 18.0, 98.0 ],
					"presentation" : 1,
					"presentation_rect" : [ 936.000009775161743, 201.666666626930237, 18.0, 98.0 ],
					"size" : 6,
					"value" : 1
				}

			}
, 			{
				"box" : 				{
					"id" : "obj-114",
					"maxclass" : "newobj",
					"numinlets" : 2,
					"numoutlets" : 1,
					"outlettype" : [ "" ],
					"patching_rect" : [ 989.0, 531.0, 89.0, 22.0 ],
					"text" : "pasPairMode 4"
				}

			}
, 			{
				"box" : 				{
					"bgcolor" : [ 0.105882352941176, 0.031372549019608, 0.031372549019608, 1.0 ],
					"fontsize" : 14.0,
					"id" : "obj-109",
					"linecount" : 6,
					"maxclass" : "comment",
					"numinlets" : 1,
					"numoutlets" : 0,
					"patching_rect" : [ 779.0, 419.0, 49.0, 103.0 ],
					"presentation" : 1,
					"presentation_linecount" : 6,
					"presentation_rect" : [ 795.000009775161743, 128.666666626930237, 49.0, 103.0 ],
					"text" : "Mute\nInd\nSwapSum\nBothA\nBothB",
					"textcolor" : [ 0.996078431372549, 0.996078431372549, 0.996078431372549, 1.0 ]
				}

			}
, 			{
				"box" : 				{
					"bgcolor" : [ 0.105882352941176, 0.031372549019608, 0.031372549019608, 1.0 ],
					"disabled" : [ 0, 0, 0, 0, 0, 0 ],
					"id" : "obj-110",
					"itemtype" : 0,
					"maxclass" : "radiogroup",
					"numinlets" : 1,
					"numoutlets" : 1,
					"outlettype" : [ "" ],
					"parameter_enable" : 0,
					"patching_rect" : [ 834.0, 419.0, 18.0, 98.0 ],
					"presentation" : 1,
					"presentation_rect" : [ 850.000009775161743, 128.666666626930237, 18.0, 98.0 ],
					"size" : 6,
					"value" : 1
				}

			}
, 			{
				"box" : 				{
					"id" : "obj-111",
					"maxclass" : "newobj",
					"numinlets" : 2,
					"numoutlets" : 1,
					"outlettype" : [ "" ],
					"patching_rect" : [ 834.0, 531.0, 89.0, 22.0 ],
					"text" : "pasPairMode 3"
				}

			}
, 			{
				"box" : 				{
					"bgcolor" : [ 0.105882352941176, 0.031372549019608, 0.031372549019608, 1.0 ],
					"fontsize" : 14.0,
					"id" : "obj-106",
					"linecount" : 6,
					"maxclass" : "comment",
					"numinlets" : 1,
					"numoutlets" : 0,
					"patching_rect" : [ 624.0, 419.0, 49.0, 103.0 ],
					"presentation" : 1,
					"presentation_linecount" : 6,
					"presentation_rect" : [ 707.000009775161743, 68.666666626930237, 49.0, 103.0 ],
					"text" : "Mute\nInd\nSwapSum\nBothA\nBothB",
					"textcolor" : [ 0.996078431372549, 0.996078431372549, 0.996078431372549, 1.0 ]
				}

			}
, 			{
				"box" : 				{
					"bgcolor" : [ 0.105882352941176, 0.031372549019608, 0.031372549019608, 1.0 ],
					"disabled" : [ 0, 0, 0, 0, 0, 0 ],
					"id" : "obj-107",
					"itemtype" : 0,
					"maxclass" : "radiogroup",
					"numinlets" : 1,
					"numoutlets" : 1,
					"outlettype" : [ "" ],
					"parameter_enable" : 0,
					"patching_rect" : [ 679.0, 419.0, 18.0, 98.0 ],
					"presentation" : 1,
					"presentation_rect" : [ 762.000009775161743, 68.666666626930237, 18.0, 98.0 ],
					"size" : 6,
					"value" : 1
				}

			}
, 			{
				"box" : 				{
					"id" : "obj-108",
					"maxclass" : "newobj",
					"numinlets" : 2,
					"numoutlets" : 1,
					"outlettype" : [ "" ],
					"patching_rect" : [ 679.0, 531.0, 89.0, 22.0 ],
					"text" : "pasPairMode 2"
				}

			}
, 			{
				"box" : 				{
					"id" : "obj-105",
					"maxclass" : "newobj",
					"numinlets" : 1,
					"numoutlets" : 0,
					"patching_rect" : [ 120.0, 316.0, 101.0, 22.0 ],
					"text" : "s globalPairMode"
				}

			}
, 			{
				"box" : 				{
					"bgcolor" : [ 0.105882352941176, 0.031372549019608, 0.031372549019608, 1.0 ],
					"fontsize" : 14.0,
					"id" : "obj-103",
					"linecount" : 6,
					"maxclass" : "comment",
					"numinlets" : 1,
					"numoutlets" : 0,
					"patching_rect" : [ 65.0, 176.0, 49.0, 103.0 ],
					"presentation" : 1,
					"presentation_linecount" : 6,
					"presentation_rect" : [ 618.000009775161743, 204.666666626930237, 49.0, 103.0 ],
					"text" : "Mute\nInd\nSwapSum\nBothA\nBothB",
					"textcolor" : [ 0.996078431372549, 0.996078431372549, 0.996078431372549, 1.0 ]
				}

			}
, 			{
				"box" : 				{
					"bgcolor" : [ 0.105882352941176, 0.031372549019608, 0.031372549019608, 1.0 ],
					"disabled" : [ 0, 0, 0, 0, 0, 0 ],
					"id" : "obj-104",
					"itemtype" : 0,
					"maxclass" : "radiogroup",
					"numinlets" : 1,
					"numoutlets" : 1,
					"outlettype" : [ "" ],
					"parameter_enable" : 0,
					"patching_rect" : [ 120.0, 176.0, 18.0, 98.0 ],
					"presentation" : 1,
					"presentation_rect" : [ 673.000009775161743, 204.666666626930237, 18.0, 98.0 ],
					"size" : 6,
					"value" : 1
				}

			}
, 			{
				"box" : 				{
					"bgcolor" : [ 0.105882352941176, 0.031372549019608, 0.031372549019608, 1.0 ],
					"fontsize" : 14.0,
					"id" : "obj-98",
					"linecount" : 6,
					"maxclass" : "comment",
					"numinlets" : 1,
					"numoutlets" : 0,
					"patching_rect" : [ 469.0, 419.0, 49.0, 103.0 ],
					"presentation" : 1,
					"presentation_linecount" : 6,
					"presentation_rect" : [ 617.000009775161743, 48.666666626930237, 49.0, 103.0 ],
					"text" : "Mute\nInd\nSwapSum\nBothA\nBothB",
					"textcolor" : [ 0.996078431372549, 0.996078431372549, 0.996078431372549, 1.0 ]
				}

			}
, 			{
				"box" : 				{
					"bgcolor" : [ 0.105882352941176, 0.031372549019608, 0.031372549019608, 1.0 ],
					"disabled" : [ 0, 0, 0, 0, 0, 0 ],
					"id" : "obj-99",
					"itemtype" : 0,
					"maxclass" : "radiogroup",
					"numinlets" : 1,
					"numoutlets" : 1,
					"outlettype" : [ "" ],
					"parameter_enable" : 0,
					"patching_rect" : [ 524.0, 419.0, 18.0, 98.0 ],
					"presentation" : 1,
					"presentation_rect" : [ 672.000009775161743, 48.666666626930237, 18.0, 98.0 ],
					"size" : 6,
					"value" : 1
				}

			}
, 			{
				"box" : 				{
					"id" : "obj-97",
					"maxclass" : "newobj",
					"numinlets" : 2,
					"numoutlets" : 1,
					"outlettype" : [ "" ],
					"patching_rect" : [ 524.0, 531.0, 89.0, 22.0 ],
					"text" : "pasPairMode 1"
				}

			}
, 			{
				"box" : 				{
					"id" : "obj-73",
					"maxclass" : "newobj",
					"numinlets" : 0,
					"numoutlets" : 1,
					"outlettype" : [ "" ],
					"patching_rect" : [ 65.0, 349.0, 70.0, 22.0 ],
					"text" : "r PairMatrix"
				}

			}
, 			{
				"box" : 				{
					"id" : "obj-7",
					"maxclass" : "message",
					"numinlets" : 2,
					"numoutlets" : 1,
					"outlettype" : [ "" ],
					"patching_rect" : [ 481.0, 219.5, 174.0, 22.0 ],
					"text" : "1 3 5 7 9 11 13 15 17 19 21 23"
				}

			}
, 			{
				"box" : 				{
					"id" : "obj-2",
					"maxclass" : "newobj",
					"numinlets" : 1,
					"numoutlets" : 0,
					"patching_rect" : [ 65.0, 750.5, 94.0, 22.0 ],
					"text" : "s toMatrixDirect"
				}

			}
, 			{
				"box" : 				{
					"id" : "obj-42",
					"maxclass" : "message",
					"numinlets" : 2,
					"numoutlets" : 1,
					"outlettype" : [ "" ],
					"patching_rect" : [ 481.0, 186.5, 174.0, 22.0 ],
					"text" : "22 1 2 5 6 9 10 13 14 17 18 21"
				}

			}
, 			{
				"box" : 				{
					"id" : "obj-41",
					"maxclass" : "message",
					"numinlets" : 2,
					"numoutlets" : 1,
					"outlettype" : [ "" ],
					"patching_rect" : [ 481.0, 146.5, 174.0, 22.0 ],
					"text" : "1 2 5 6 9 10 13 14 17 18 21 22"
				}

			}
, 			{
				"box" : 				{
					"id" : "obj-39",
					"maxclass" : "message",
					"numinlets" : 2,
					"numoutlets" : 1,
					"outlettype" : [ "" ],
					"patching_rect" : [ 481.0, 114.5, 146.0, 22.0 ],
					"text" : "12 1 2 3 4 5 6 7 8 9 10 11"
				}

			}
, 			{
				"box" : 				{
					"id" : "obj-35",
					"maxclass" : "newobj",
					"numinlets" : 1,
					"numoutlets" : 1,
					"outlettype" : [ "" ],
					"patching_rect" : [ 430.0, 271.5, 20.0, 22.0 ],
					"text" : "t l"
				}

			}
, 			{
				"box" : 				{
					"bgcolor" : [ 0.105882352941176, 0.031372549019608, 0.031372549019608, 1.0 ],
					"columns" : 24,
					"id" : "obj-21",
					"maxclass" : "matrixctrl",
					"numinlets" : 1,
					"numoutlets" : 2,
					"outlettype" : [ "list", "list" ],
					"parameter_enable" : 0,
					"patching_rect" : [ 65.0, 386.5, 353.0, 347.0 ],
					"presentation" : 1,
					"presentation_rect" : [ 36.333328187465668, 117.830972575938745, 245.0, 240.835694050991492 ],
					"rows" : 24,
					"style" : "chiba"
				}

			}
 ],
		"lines" : [ 			{
				"patchline" : 				{
					"destination" : [ "obj-105", 0 ],
					"source" : [ "obj-1", 0 ]
				}

			}
, 			{
				"patchline" : 				{
					"destination" : [ "obj-2", 0 ],
					"order" : 0,
					"source" : [ "obj-1", 1 ]
				}

			}
, 			{
				"patchline" : 				{
					"destination" : [ "obj-21", 0 ],
					"order" : 1,
					"source" : [ "obj-1", 1 ]
				}

			}
, 			{
				"patchline" : 				{
					"destination" : [ "obj-1", 0 ],
					"source" : [ "obj-104", 0 ]
				}

			}
, 			{
				"patchline" : 				{
					"destination" : [ "obj-108", 0 ],
					"source" : [ "obj-107", 0 ]
				}

			}
, 			{
				"patchline" : 				{
					"destination" : [ "obj-107", 0 ],
					"midpoints" : [ 688.5, 563.0, 672.5, 563.0, 672.5, 408.0, 688.5, 408.0 ],
					"source" : [ "obj-108", 0 ]
				}

			}
, 			{
				"patchline" : 				{
					"destination" : [ "obj-111", 0 ],
					"source" : [ "obj-110", 0 ]
				}

			}
, 			{
				"patchline" : 				{
					"destination" : [ "obj-110", 0 ],
					"midpoints" : [ 843.5, 563.0, 827.5, 563.0, 827.5, 408.0, 843.5, 408.0 ],
					"source" : [ "obj-111", 0 ]
				}

			}
, 			{
				"patchline" : 				{
					"destination" : [ "obj-114", 0 ],
					"source" : [ "obj-113", 0 ]
				}

			}
, 			{
				"patchline" : 				{
					"destination" : [ "obj-113", 0 ],
					"midpoints" : [ 998.5, 563.0, 982.5, 563.0, 982.5, 408.0, 998.5, 408.0 ],
					"source" : [ "obj-114", 0 ]
				}

			}
, 			{
				"patchline" : 				{
					"destination" : [ "obj-117", 0 ],
					"source" : [ "obj-116", 0 ]
				}

			}
, 			{
				"patchline" : 				{
					"destination" : [ "obj-116", 0 ],
					"midpoints" : [ 1153.5, 563.0, 1137.5, 563.0, 1137.5, 408.0, 1153.5, 408.0 ],
					"source" : [ "obj-117", 0 ]
				}

			}
, 			{
				"patchline" : 				{
					"destination" : [ "obj-120", 0 ],
					"source" : [ "obj-119", 0 ]
				}

			}
, 			{
				"patchline" : 				{
					"destination" : [ "obj-119", 0 ],
					"midpoints" : [ 1308.5, 563.0, 1292.5, 563.0, 1292.5, 408.0, 1308.5, 408.0 ],
					"source" : [ "obj-120", 0 ]
				}

			}
, 			{
				"patchline" : 				{
					"destination" : [ "obj-123", 0 ],
					"source" : [ "obj-122", 0 ]
				}

			}
, 			{
				"patchline" : 				{
					"destination" : [ "obj-122", 0 ],
					"midpoints" : [ 1308.5, 762.0, 1292.5, 762.0, 1292.5, 607.0, 1308.5, 607.0 ],
					"source" : [ "obj-123", 0 ]
				}

			}
, 			{
				"patchline" : 				{
					"destination" : [ "obj-126", 0 ],
					"source" : [ "obj-125", 0 ]
				}

			}
, 			{
				"patchline" : 				{
					"destination" : [ "obj-125", 0 ],
					"midpoints" : [ 1153.5, 762.0, 1137.5, 762.0, 1137.5, 607.0, 1153.5, 607.0 ],
					"source" : [ "obj-126", 0 ]
				}

			}
, 			{
				"patchline" : 				{
					"destination" : [ "obj-129", 0 ],
					"source" : [ "obj-128", 0 ]
				}

			}
, 			{
				"patchline" : 				{
					"destination" : [ "obj-128", 0 ],
					"midpoints" : [ 998.5, 762.0, 982.5, 762.0, 982.5, 607.0, 998.5, 607.0 ],
					"source" : [ "obj-129", 0 ]
				}

			}
, 			{
				"patchline" : 				{
					"destination" : [ "obj-132", 0 ],
					"source" : [ "obj-131", 0 ]
				}

			}
, 			{
				"patchline" : 				{
					"destination" : [ "obj-131", 0 ],
					"midpoints" : [ 843.5, 762.0, 827.5, 762.0, 827.5, 607.0, 843.5, 607.0 ],
					"source" : [ "obj-132", 0 ]
				}

			}
, 			{
				"patchline" : 				{
					"destination" : [ "obj-135", 0 ],
					"source" : [ "obj-134", 0 ]
				}

			}
, 			{
				"patchline" : 				{
					"destination" : [ "obj-134", 0 ],
					"midpoints" : [ 688.5, 762.0, 672.5, 762.0, 672.5, 607.0, 688.5, 607.0 ],
					"source" : [ "obj-135", 0 ]
				}

			}
, 			{
				"patchline" : 				{
					"destination" : [ "obj-138", 0 ],
					"source" : [ "obj-137", 0 ]
				}

			}
, 			{
				"patchline" : 				{
					"destination" : [ "obj-137", 0 ],
					"midpoints" : [ 533.5, 762.0, 517.5, 762.0, 517.5, 607.0, 533.5, 607.0 ],
					"source" : [ "obj-138", 0 ]
				}

			}
, 			{
				"patchline" : 				{
					"destination" : [ "obj-141", 0 ],
					"source" : [ "obj-139", 0 ]
				}

			}
, 			{
				"patchline" : 				{
					"destination" : [ "obj-141", 0 ],
					"source" : [ "obj-140", 0 ]
				}

			}
, 			{
				"patchline" : 				{
					"destination" : [ "obj-104", 0 ],
					"source" : [ "obj-141", 0 ]
				}

			}
, 			{
				"patchline" : 				{
					"destination" : [ "obj-2", 0 ],
					"source" : [ "obj-21", 0 ]
				}

			}
, 			{
				"patchline" : 				{
					"destination" : [ "obj-35", 0 ],
					"source" : [ "obj-39", 0 ]
				}

			}
, 			{
				"patchline" : 				{
					"destination" : [ "obj-35", 0 ],
					"source" : [ "obj-41", 0 ]
				}

			}
, 			{
				"patchline" : 				{
					"destination" : [ "obj-35", 0 ],
					"source" : [ "obj-42", 0 ]
				}

			}
, 			{
				"patchline" : 				{
					"destination" : [ "obj-35", 0 ],
					"source" : [ "obj-7", 0 ]
				}

			}
, 			{
				"patchline" : 				{
					"destination" : [ "obj-21", 0 ],
					"source" : [ "obj-73", 0 ]
				}

			}
, 			{
				"patchline" : 				{
					"destination" : [ "obj-99", 0 ],
					"midpoints" : [ 533.5, 563.0, 517.5, 563.0, 517.5, 408.0, 533.5, 408.0 ],
					"source" : [ "obj-97", 0 ]
				}

			}
, 			{
				"patchline" : 				{
					"destination" : [ "obj-97", 0 ],
					"source" : [ "obj-99", 0 ]
				}

			}
 ],
		"bgcolor" : [ 0.058823529411765, 0.082352941176471, 0.235294117647059, 1.0 ]
	}

}
